<svg xmlns="http://www.w3.org/2000/svg" fill="none" viewBox="0 0 128 128"><rect width="128" height="128" fill="url(#paint0_linear)" rx="24"/><circle cx="40" cy="51" r="20" fill="#fff"/><circle cx="40" cy="51" r="8" fill="#333"/><circle cx="37" cy="46" r="3" fill="#fff"/><circle cx="88" cy="51" r="20" fill="#fff"/><circle cx="88" cy="51" r="8" fill="#333"/><circle cx="85" cy="46" r="3" fill="#fff"/><path fill="#fff" d="M54 88h9v6a2 2 0 01-2 2h-5a2 2 0 01-2-2v-6zM65 88h9v6a2 2 0 01-2 2h-5a2 2 0 01-2-2v-6z"/><path fill="#FCD29A" d="M47.5 84.5C48.096 87.32 54 88 54 88h20s5.903-.68 6.5-3.5c.687-3.253-3.578-3.913-6.5-5.5-6.864-3.728-13.137-3.728-20 0-2.922 1.587-7.188 2.247-6.5 5.5z"/><path fill="#333" d="M64 83c-4.554 0-10-1.446-10-6s5.446-6 10-6 10 1.446 10 6-5.446 6-10 6z"/><defs><linearGradient id="paint0_linear" x1="64" x2="64" y1="0" y2="128" gradientUnits="userSpaceOnUse"><stop stop-color="#00A29C"/><stop offset="1" stop-color="#00ADD8"/></linearGradient></defs></svg>