<svg xmlns="http://www.w3.org/2000/svg" fill="none" viewBox="0 0 256 132"><path fill="url(#paint0_linear)" stroke="#E0E0E0" stroke-width="4" d="M122.926 34.472c1.801-11.527 2.702-17.29 5.537-21.62a23.994 23.994 0 0110.188-8.72C143.366 2 149.2 2 160.866 2h50.268c15.454 0 23.18 0 28.703 3.145a23.998 23.998 0 0110.56 12.339c2.255 5.942 1.062 13.576-1.323 28.844l-8 51.2c-1.801 11.527-2.702 17.29-5.537 21.619a23.998 23.998 0 01-10.188 8.721C220.634 130 214.8 130 203.134 130h-50.268c-15.454 0-23.18 0-28.703-3.145a24 24 0 01-10.56-12.339c-2.255-5.942-1.062-13.576 1.323-28.844l8-51.2z"/><path fill="#E0E0E0" d="M104 45H30.49l-5.88 6 78.029-.031L104 45zM101.528 63H6.071L0 69l100.163-.051L101.528 63zM98.76 81H58.385l-5.429 6 44.45-.024L98.76 81z"/><circle cx="158" cy="53" r="20" fill="#fff"/><circle cx="158" cy="53" r="8" fill="#333"/><circle cx="155" cy="48" r="3" fill="#fff"/><circle cx="206" cy="53" r="20" fill="#fff"/><circle cx="206" cy="53" r="8" fill="#333"/><circle cx="203" cy="48" r="3" fill="#fff"/><path fill="#fff" d="M172 90h9v6a2 2 0 01-2 2h-5a2 2 0 01-2-2v-6zM183 90h9v6a2 2 0 01-2 2h-5a2 2 0 01-2-2v-6z"/><path fill="#FCD29A" d="M165.5 86.5c.596 2.82 6.5 3.5 6.5 3.5h20s5.903-.68 6.5-3.5c.687-3.253-3.578-3.913-6.5-5.5-6.864-3.728-13.137-3.728-20 0-2.922 1.587-7.188 2.247-6.5 5.5z"/><path fill="#333" d="M182 85c-4.554 0-10-1.446-10-6s5.446-6 10-6 10 1.446 10 6-5.446 6-10 6z"/><defs><linearGradient id="paint0_linear" x1="182" x2="182" y1="2" y2="130" gradientUnits="userSpaceOnUse"><stop stop-color="#00A29C"/><stop offset="1" stop-color="#00ADD8"/></linearGradient></defs></svg>